<?xml version="1.0" standalone="no"?> <!DOCTYPE svg PUBLIC "-//W3C//DTD SVG 20010904//EN" "http://www.w3.org/TR/2001/REC-SVG-20010904/DTD/svg10.dtd"> <svg version="1.0" xmlns="http://www.w3.org/2000/svg" width="1200.000000pt" height="834.000000pt" viewBox="0 0 1200.000000 834.000000" preserveAspectRatio="xMidYMid meet"> <g transform="translate(0.000000,834.000000) scale(0.100000,-0.100000)" fill="#4f46ee" stroke="none"> <path d="M3225 5518 c-3 -7 -6 -105 -7 -218 l-3 -205 -72 -7 c-211 -21 -459 -164 -595 -343 -118 -154 -161 -261 -194 -479 l-5 -38 -215 4 -214 3 0 -68 0 -68 209 2 c115 0 214 -2 220 -5 6 -4 11 -28 11 -54 1 -73 32 -188 76 -280 62 -128 161 -249 279 -342 117 -93 296 -168 425 -179 l75 -6 2 -210 1 -210 67 -3 66 -3 -2 205 c-1 112 2 209 5 215 4 6 28 11 54 11 99 0 281 68 401 149 129 88 246 221 313 356 40 80 81 214 87 285 l6 65 218 3 218 2 -3 68 -3 67 -215 0 -214 0 -3 40 c-9 136 -24 189 -41 144 -55 -139 -80 -185 -134 -248 l-59 -71 49 0 c27 0 51 -2 54 -5 3 -3 -1 -38 -8 -78 -58 -305 -305 -561 -614 -635 -120 -29 -305 -24 -405 11 -275 95 -461 283 -544 550 -31 97 -36 146 -17 160 14 11 14 16 -1 57 -8 25 -18 80 -21 124 -5 84 15 283 30 292 5 4 20 -3 32 -15 27 -26 45 -27 53 -3 12 35 92 138 144 188 109 102 233 169 369 199 41 9 82 21 91 25 9 5 20 6 23 3 3 -4 6 -58 6 -122 l0 -116 60 2 c33 1 63 4 67 6 5 3 5 52 2 109 -3 56 -2 107 2 112 8 9 124 -14 184 -36 64 -24 160 -70 182 -88 24 -18 25 -18 86 11 34 16 62 35 62 41 0 15 -77 68 -165 112 -92 47 -190 77 -273 85 l-72 6 -2 205 c-1 113 -2 211 -2 218 -1 8 -20 12 -61 12 -39 0 -62 -4 -65 -12z m85 -474 c0 -8 -7 -14 -15 -14 -9 0 -12 -6 -8 -16 5 -14 3 -15 -16 -4 -14 7 -20 17 -17 27 3 8 6 18 6 22 0 5 11 6 25 3 14 -2 25 -11 25 -18z"/> <path d="M2082 5337 c-20 -22 -21 -34 -24 -292 l-2 -270 68 0 68 0 2 224 1 224 227 -2 226 -3 4 64 c2 35 2 66 0 71 -2 4 -126 7 -276 7 -270 -1 -274 -1 -294 -23z"/> <path d="M3914 5346 c-3 -7 -4 -38 -2 -67 l3 -54 215 -2 c118 -1 223 -3 234 -3 18 0 18 -10 15 -222 l-4 -223 68 0 68 0 -1 265 c0 241 -2 267 -19 290 l-18 25 -277 3 c-228 2 -277 0 -282 -12z"/> <path d="M4074 4970 c-51 -69 -229 -186 -349 -230 -145 -53 -281 -140 -348 -223 -87 -106 -117 -205 -117 -385 0 -143 3 -145 61 -34 18 34 66 100 106 147 47 54 71 90 67 100 -7 18 12 21 19 3 4 -9 13 -4 30 13 13 15 34 32 46 38 12 7 18 17 15 23 -4 7 -3 8 4 4 7 -4 22 2 34 13 18 18 19 21 5 21 -9 0 -17 -4 -17 -10 0 -5 -5 -10 -11 -10 -6 0 -9 7 -5 15 3 8 1 15 -4 15 -6 0 -10 -4 -10 -9 0 -5 -20 -19 -44 -31 -24 -11 -54 -36 -67 -55 -19 -27 -27 -32 -42 -24 -13 7 -23 7 -33 -2 -13 -10 -17 -10 -25 2 -12 19 -11 25 7 40 9 7 23 30 31 51 8 21 22 38 30 38 7 0 13 6 11 14 -3 15 142 132 182 147 14 5 32 12 40 15 13 4 13 6 0 14 -13 8 -12 12 5 24 11 9 26 16 33 16 6 0 12 5 12 10 0 6 6 10 14 10 12 0 51 17 120 52 13 7 21 6 26 -2 5 -8 17 -6 43 7 29 16 32 21 19 29 -14 9 -13 11 6 16 12 4 22 2 22 -4 0 -5 14 -8 32 -6 25 2 35 -2 43 -18 6 -12 16 -28 23 -36 8 -10 10 -53 5 -152 -6 -136 -7 -138 -36 -167 -24 -24 -28 -35 -23 -60 4 -21 1 -31 -9 -35 -8 -4 -15 -17 -15 -30 0 -12 -6 -27 -13 -31 -8 -4 -16 -16 -20 -25 -3 -9 -24 -22 -47 -28 -23 -6 -44 -18 -47 -26 -3 -7 -14 -14 -24 -14 -10 0 -19 -6 -19 -14 0 -8 -19 -21 -42 -30 -22 -10 -57 -30 -76 -46 -20 -16 -40 -26 -45 -23 -5 3 -33 -3 -62 -12 -61 -21 -80 -17 -88 20 -5 28 5 46 52 90 16 15 22 29 17 41 -4 9 1 28 9 41 12 18 21 22 38 17 19 -6 20 -5 9 8 -10 13 -10 19 4 32 9 10 14 20 10 23 -14 14 -186 -167 -253 -267 -48 -71 -105 -175 -123 -225 -4 -11 -13 -33 -19 -48 -6 -15 -11 -38 -11 -50 0 -35 -20 -97 -31 -97 -6 0 -20 21 -31 48 -41 94 -199 281 -250 298 -10 3 -18 8 -18 12 0 4 -18 18 -40 32 -22 14 -40 28 -40 32 0 5 -5 8 -10 8 -6 0 -5 -8 2 -20 7 -11 17 -20 22 -20 9 0 76 -68 76 -76 0 -3 -11 -2 -25 2 -21 5 -25 3 -25 -15 0 -46 -72 -17 -147 58 -68 69 -117 164 -120 235 -2 49 -1 57 10 44 6 -9 34 -19 60 -23 62 -8 132 -38 147 -62 8 -12 13 -14 16 -6 9 21 63 -25 57 -48 -3 -10 -9 -19 -15 -19 -12 0 19 -31 59 -59 18 -12 37 -19 43 -16 5 3 7 0 4 -9 -3 -9 2 -17 15 -21 21 -6 161 -152 161 -167 0 -4 7 -8 16 -8 15 0 16 9 11 63 -13 143 -80 256 -192 322 -42 25 -149 66 -225 85 -59 15 -158 71 -194 109 -17 17 -34 31 -39 31 -12 0 -2 -238 12 -284 5 -17 15 -51 22 -76 8 -25 18 -54 24 -65 80 -151 192 -228 400 -275 34 -8 57 -21 73 -40 33 -42 86 -154 112 -238 l23 -73 58 3 59 3 5 119 c4 96 11 139 35 215 44 142 64 172 125 189 267 77 402 165 511 332 68 105 75 119 105 240 28 111 33 190 20 333 -16 177 -19 182 -67 117z"/> <path d="M6895 4548 c-41 -24 -56 -68 -39 -113 10 -25 62 -47 95 -40 34 8 69 48 69 81 0 53 -80 99 -125 72z"/> <path d="M7242 4512 c-88 -32 -132 -87 -132 -164 0 -94 66 -152 210 -184 102 -23 146 -41 164 -69 23 -34 20 -87 -6 -120 -74 -94 -278 -61 -306 50 -7 24 -14 31 -40 33 -42 4 -50 -17 -27 -69 52 -115 205 -169 339 -119 98 37 152 127 127 213 -23 78 -83 117 -226 148 -84 18 -120 34 -144 65 -31 40 -27 80 12 119 60 60 181 60 242 -1 19 -19 35 -44 35 -55 0 -25 19 -32 54 -19 24 9 27 14 21 38 -26 110 -195 179 -323 134z"/> <path d="M4958 4513 c-2 -4 -3 -152 -3 -328 l0 -320 70 0 70 0 -4 198 c-3 177 -2 197 13 197 9 0 16 -5 16 -10 0 -12 214 -335 243 -367 17 -19 31 -23 79 -23 32 0 58 3 58 8 0 4 1 151 1 327 l1 320 -69 0 -68 0 0 -140 c0 -77 4 -168 8 -202 7 -54 6 -63 -8 -63 -9 0 -24 14 -33 31 -15 28 -229 359 -237 367 -7 8 -134 12 -137 5z"/> <path d="M9612 4508 c-6 -6 -12 -16 -12 -21 0 -14 -212 -540 -233 -576 -17 -32 -17 -36 -3 -47 18 -13 63 -7 73 9 3 6 18 45 33 86 l27 76 158 0 158 0 31 -85 32 -85 42 -3 c47 -4 48 -2 28 37 -8 15 -51 117 -95 227 -168 416 -154 389 -192 392 -19 2 -40 -3 -47 -10z m108 -242 c33 -82 57 -153 54 -158 -8 -12 -232 -10 -239 3 -4 5 0 24 8 42 22 47 83 208 91 240 4 16 11 27 17 25 5 -2 37 -70 69 -152z"/> <path d="M10038 4515 c-3 -3 -3 -146 -1 -318 2 -171 3 -318 3 -324 0 -8 14 -13 35 -13 l35 0 0 330 0 330 -33 0 c-19 0 -36 -2 -39 -5z"/> <path d="M3656 4493 c-3 -4 -6 -10 -6 -14 0 -10 28 -20 34 -11 5 9 -20 32 -28 25z"/> <path d="M6187 4473 c-3 -5 -1 -32 2 -60 9 -65 2 -78 -43 -75 l-36 3 0 -56 0 -55 40 0 c25 0 40 -5 41 -12 0 -7 0 -65 -1 -129 -2 -135 11 -178 62 -209 27 -17 47 -20 108 -18 l75 3 0 60 0 60 -35 -3 c-60 -5 -68 9 -72 133 l-3 110 52 -2 c48 -2 53 0 59 21 3 13 4 38 2 57 -3 33 -4 34 -50 34 -25 0 -50 4 -54 8 -4 4 -6 36 -5 72 l2 65 -70 0 c-38 0 -72 -3 -74 -7z"/> <path d="M3746 4430 c-21 -22 -41 -40 -46 -40 -4 0 -10 -6 -13 -12 -3 -9 6 -13 24 -14 23 -1 27 2 18 12 -8 10 -5 16 10 26 12 7 21 18 21 25 0 7 8 16 17 22 10 5 15 12 12 15 -3 3 -22 -12 -43 -34z"/> <path d="M6725 4339 c-17 -5 -41 -22 -53 -39 -26 -35 -44 -31 -40 8 3 26 2 27 -59 30 l-62 3 2 -238 2 -238 68 -3 67 -3 0 136 c0 181 19 217 115 219 l40 1 2 55 c2 78 -12 90 -82 69z"/> <path d="M7825 4335 c-22 -8 -49 -26 -61 -40 -23 -29 -34 -24 -34 17 0 27 -3 29 -31 26 l-31 -3 1 -230 c0 -126 1 -233 1 -237 0 -5 16 -8 35 -8 l35 0 0 153 c0 128 3 159 19 194 41 89 174 102 218 21 15 -28 18 -58 18 -198 l0 -165 35 0 35 0 0 180 c-1 200 -6 222 -68 269 -42 32 -117 41 -172 21z"/> <path d="M8292 4343 c-64 -9 -149 -120 -111 -144 27 -17 48 -9 64 25 44 91 206 78 231 -18 11 -46 1 -54 -83 -61 -114 -9 -161 -24 -199 -62 -30 -30 -34 -40 -34 -88 0 -42 5 -60 25 -83 64 -76 197 -83 259 -13 27 30 46 27 46 -9 0 -27 3 -30 31 -30 l31 0 -4 188 c-3 176 -4 189 -26 219 -37 51 -72 71 -138 76 -32 3 -74 3 -92 0z m186 -287 c9 -109 -148 -189 -226 -115 -22 19 -28 61 -16 94 10 26 63 47 138 55 100 11 101 10 104 -34z"/> <path d="M8840 4343 c-14 -2 -42 -18 -62 -34 -20 -16 -39 -29 -42 -29 -2 0 -6 12 -8 28 -3 23 -7 27 -36 27 l-34 0 2 -325 c0 -179 5 -329 9 -333 5 -5 21 -7 37 -5 l29 3 -4 128 c-2 78 0 127 6 127 6 0 18 -9 29 -21 93 -103 264 -64 325 73 51 116 18 264 -75 327 -42 29 -121 45 -176 34z m126 -82 c43 -26 74 -94 74 -161 0 -106 -61 -180 -148 -180 -96 0 -162 75 -162 185 0 72 41 143 95 166 37 15 109 10 141 -10z"/> <path d="M5602 4163 c3 -195 13 -234 71 -276 56 -43 159 -38 207 8 31 30 29 31 45 -20 6 -19 121 -22 126 -2 2 6 3 114 1 240 l-3 227 -71 0 -70 0 7 -133 c8 -159 -2 -196 -60 -224 -34 -16 -37 -16 -68 2 -18 10 -36 23 -40 29 -4 6 -7 81 -5 166 l2 155 -73 3 -73 3 4 -178z"/> <path d="M6868 4333 c-3 -4 -4 -111 -4 -238 l1 -230 68 -3 c37 -2 67 1 67 5 0 4 1 112 1 238 l1 230 -65 3 c-36 2 -67 -1 -69 -5z"/> <path d="M2110 3561 l-54 -6 2 -270 3 -270 25 -22 c25 -23 29 -23 295 -23 l269 0 0 70 0 71 -227 -2 -228 -1 -1 219 c-1 205 -5 246 -22 241 -4 -1 -32 -4 -62 -7z"/> <path d="M4379 3561 c-1 -3 -1 -106 1 -228 l2 -223 -236 0 -237 0 3 -67 3 -68 273 -3 273 -2 24 24 25 25 0 271 c0 148 -3 270 -7 270 -5 1 -34 2 -65 4 -32 1 -59 0 -59 -3z"/> </g> </svg>